<svg class="svg-icon" style="width: 1em;height: 1em;vertical-align: middle;fill: currentColor;overflow: hidden;" viewBox="0 0 1024 1024" version="1.1" xmlns="http://www.w3.org/2000/svg"><path d="M695.7568 924.16H190.2592c-46.2336 0-83.6608-37.4784-83.6608-83.6608V182.3744c0-46.2336 37.4784-83.6608 83.6608-83.6608h505.4464c46.2336 0 83.6608 37.4784 83.6608 83.6608v658.1248c0.0512 46.2336-37.4272 83.6608-83.6096 83.6608z" fill="#A5ADF6" /><path d="M691.9168 547.6352m-119.296 0a119.296 119.296 0 1 0 238.592 0 119.296 119.296 0 1 0-238.592 0Z" fill="#A5ADF6" /><path d="M779.4176 628.6848V466.5856c-21.8112-23.5008-52.9408-38.2464-87.5008-38.2464-65.8944 0-119.296 53.4016-119.296 119.296s53.4016 119.296 119.296 119.296c34.6112 0 65.7408-14.7456 87.5008-38.2464z" fill="#635DF7" /><path d="M844.5952 923.5968H537.6c-58.0608 0-105.1648-47.104-105.1648-105.1648s47.104-105.1648 105.1648-105.1648h306.9952c58.0608 0 105.1648 47.104 105.1648 105.1648 0 58.112-47.0528 105.1648-105.1648 105.1648z" fill="#A5ADF6" /><path d="M537.6 713.2672c-58.0608 0-105.1648 47.104-105.1648 105.1648s47.104 105.1648 105.1648 105.1648h167.5776c41.7792-4.7104 74.24-40.0896 74.24-83.0976v-127.232H537.6z" fill="#635DF7" /><path d="M643.7376 301.9264H230.4c-22.6304 0-40.96-18.3296-40.96-40.96s18.3296-40.96 40.96-40.96h413.2864c22.6304 0 40.96 18.3296 40.96 40.96s-18.2784 40.96-40.9088 40.96zM525.0048 452.3008H230.4c-22.6304 0-40.96-18.3296-40.96-40.96s18.3296-40.96 40.96-40.96h294.5536c22.6304 0 40.96 18.3296 40.96 40.96s-18.2784 40.96-40.9088 40.96zM471.8592 610.048H230.4c-22.6304 0-40.96-18.3296-40.96-40.96s18.3296-40.96 40.96-40.96h241.408c22.6304 0 40.96 18.3296 40.96 40.96s-18.2784 40.96-40.9088 40.96z" fill="#FFFFFF" /></svg>